<svg id="Layer_3" data-name="Layer 3" xmlns="http://www.w3.org/2000/svg" viewBox="0 0 124 42"><defs><style>.cls-1{fill:#f8b547;}</style></defs><title>logo</title><path class="cls-1" d="M12.546,42A11.087,11.087,0,0,1,3.56,37.607Q0,33.217,0,26.119A33.154,33.154,0,0,1,2.451,13.176a23.727,23.727,0,0,1,7-9.511A15.23,15.23,0,0,1,19.169,0a13.8,13.8,0,0,1,8.345,2.327,6.767,6.767,0,0,1,3.18,5.555,8.211,8.211,0,0,1-1.926,5.5,12.9,12.9,0,0,1-4.2-.815,9.212,9.212,0,0,1-3.5-1.978l1.109-5.875A6.875,6.875,0,0,0,18.5,3.84q-3.56,0-6.3,6.079A36.364,36.364,0,0,0,9.454,24.9q0,5.876,1.954,8.522a5.764,5.764,0,0,0,4.756,2.647q4.61,0,8.87-4.3l2.393,2.153a19.077,19.077,0,0,1-2.334,2.56,23.456,23.456,0,0,1-3.326,2.7,18.825,18.825,0,0,1-4.143,1.95A15.368,15.368,0,0,1,12.546,42Z"/><path class="cls-1" d="M38.571,42a7.649,7.649,0,0,1-6.3-2.822q-2.275-2.821-2.275-7.882a18.051,18.051,0,0,1,3.472-11.11,11.308,11.308,0,0,1,9.6-4.654l2.1,0.116a4.674,4.674,0,0,1,2.217-.523q4.608,0,4.61,8.667a30.163,30.163,0,0,0,4.843-.64l0.934-.233,0.35,2.269a27.108,27.108,0,0,1-5.193,1.454l-1.167.232a24.768,24.768,0,0,1-4.493,10.616A10.418,10.418,0,0,1,38.571,42Zm3.152-5q2.45,0,4.405-3.141a20.882,20.882,0,0,0,2.714-6.631q-6.245,0-6.244-4.654a8.157,8.157,0,0,1,.758-3.489l0.292-.582a1.311,1.311,0,0,0-.583-0.116,0.967,0.967,0,0,0-.525.116q-1.458.931-2.742,4.363a22.309,22.309,0,0,0-1.284,7.853Q38.513,37,41.723,37Z"/><path class="cls-1" d="M54.619,41.475H54.21a11.467,11.467,0,0,1-.116-2.123,64.186,64.186,0,0,1,1.575-8.929A78.892,78.892,0,0,0,57.245,22.1a6.754,6.754,0,0,0-1.634-3.956l-0.525-.7,0.058-.756a41.619,41.619,0,0,1,10.1-.873,10.364,10.364,0,0,1,.7,4.246,13.818,13.818,0,0,1,2.684-2.792,6.432,6.432,0,0,1,4.2-1.745q3.151,0,3.151,5.468-0.293.35-.788,0.9A11.472,11.472,0,0,1,73.2,23.443a7.455,7.455,0,0,1-2.888,1.221,13.157,13.157,0,0,1-.992-1.571q-0.934-1.57-1.4-1.571a6.313,6.313,0,0,0-2.568,1.745Q62.671,35.31,62.672,38.858c0,0.855.019,1.454,0.058,1.8Q60.687,41.476,54.619,41.475Z"/><path class="cls-1" d="M93.6,33.681a7.085,7.085,0,0,1-3.238,5.992A12.33,12.33,0,0,1,82.978,42a11.009,11.009,0,0,1-6.564-1.746q-2.422-1.744-2.422-3.083,0-.813,2.042-2.647a9.84,9.84,0,0,1,3.443-2.24,15.249,15.249,0,0,1,4.785,6.806q2.158-.174,2.16-2.036,0-2.675-4.727-7.591T76.968,21.64a5.014,5.014,0,0,1,2.626-4.508,11.946,11.946,0,0,1,6.331-1.6A9.721,9.721,0,0,1,91.5,16.841a4.114,4.114,0,0,1,1.868,3.548q0,2.241-3.56,6.2,0.407,0.407,1.051,1.076a13.9,13.9,0,0,1,1.692,2.53A7.166,7.166,0,0,1,93.6,33.681ZM90.447,20.418q0-2.035-2.8-2.036a4.089,4.089,0,0,0-2.217.552,1.537,1.537,0,0,0-.876,1.251q0,1.279,2.568,3.606L88,24.548Q90.447,22.454,90.447,20.418Z"/><path class="cls-1" d="M104.452,42a7.647,7.647,0,0,1-6.3-2.822q-2.278-2.821-2.276-7.882a18.056,18.056,0,0,1,3.471-11.11,11.31,11.31,0,0,1,9.6-4.654l2.1,0.116a4.674,4.674,0,0,1,2.217-.523q4.608,0,4.609,8.667a30.173,30.173,0,0,0,4.844-.64l0.934-.233L124,25.188a27.1,27.1,0,0,1-5.194,1.454l-1.167.232a24.759,24.759,0,0,1-4.493,10.616A10.414,10.414,0,0,1,104.452,42Zm3.151-5q2.451,0,4.4-3.141a20.863,20.863,0,0,0,2.714-6.631q-6.245,0-6.243-4.654a8.158,8.158,0,0,1,.759-3.489l0.292-.582a1.313,1.313,0,0,0-.583-0.116,0.967,0.967,0,0,0-.526.116q-1.458.931-2.742,4.363a22.309,22.309,0,0,0-1.284,7.853Q104.394,37,107.6,37Z"/></svg>